<svg xmlns="http://www.w3.org/2000/svg" width="36" height="16" viewBox="0 0 36 16"><path d="M22.1136 0.709961L17.4372 15.7987H14.9064L11.6152 5.48909C11.5249 5.23866 11.4416 4.93257 11.3652 4.57083C11.3236 4.74474 11.2819 4.90822 11.2403 5.06127C11.1986 5.21431 11.1535 5.35692 11.1049 5.48909L7.78244 15.7987H5.24116L0.575195 0.709961H2.91859C3.16161 0.709961 3.36297 0.769091 3.52267 0.887353C3.68931 0.998657 3.8004 1.1517 3.85595 1.34648L6.41806 10.3726C6.47361 10.5952 6.52569 10.8387 6.57429 11.103C6.62984 11.3604 6.68538 11.6317 6.74093 11.9169C6.79648 11.6247 6.8555 11.35 6.91799 11.0926C6.98742 10.8352 7.06033 10.5952 7.1367 10.3726L10.0946 1.34648C10.1501 1.18648 10.2578 1.0404 10.4175 0.908222C10.5841 0.776048 10.7855 0.709961 11.0215 0.709961H11.8443C12.0873 0.709961 12.2852 0.769091 12.438 0.887353C12.5907 1.00561 12.7053 1.15866 12.7817 1.34648L15.7292 10.3726C15.875 10.8039 16.0069 11.3013 16.1249 11.8647C16.2152 11.3152 16.3159 10.8178 16.427 10.3726L18.9891 1.34648C19.0307 1.17257 19.1349 1.02301 19.3015 0.897787C19.4751 0.77257 19.68 0.709961 19.916 0.709961H22.1136ZM29.5976 13.6074C30.1183 13.6074 30.5557 13.5447 30.9099 13.4195C31.264 13.2943 31.5452 13.1274 31.7535 12.9187C31.9687 12.71 32.1215 12.4665 32.2117 12.1882C32.309 11.91 32.3576 11.6143 32.3576 11.3013C32.3576 10.9743 32.3055 10.6821 32.2013 10.4247C32.0972 10.1604 31.934 9.93779 31.7118 9.75692C31.4896 9.56909 31.2015 9.42648 30.8474 9.32909C30.5002 9.2317 30.0801 9.183 29.5871 9.183H26.7646V13.6074H29.5976ZM26.7646 2.8804V7.24214H28.9935C29.9517 7.24214 30.6738 7.06822 31.1598 6.7204C31.6528 6.37257 31.8993 5.81953 31.8993 5.06127C31.8993 4.27518 31.6771 3.71518 31.2327 3.38127C30.7883 3.04735 30.094 2.8804 29.1497 2.8804H26.7646ZM29.1497 0.709961C30.1357 0.709961 30.9793 0.803874 31.6806 0.991701C32.3819 1.17953 32.9547 1.44735 33.3991 1.79518C33.8504 2.14301 34.1802 2.56387 34.3885 3.05779C34.5968 3.5517 34.701 4.10822 34.701 4.72735C34.701 5.08214 34.6489 5.42301 34.5447 5.74996C34.4406 6.06996 34.2774 6.37257 34.0551 6.65779C33.84 6.93605 33.5622 7.18996 33.222 7.41953C32.8887 7.64909 32.4895 7.84387 32.0243 8.00387C34.0934 8.46996 35.128 9.58996 35.128 11.3639C35.128 12.0039 35.0065 12.5952 34.7634 13.1378C34.5204 13.6804 34.1663 14.15 33.7011 14.5465C33.2359 14.936 32.6631 15.2421 31.9826 15.4647C31.3022 15.6874 30.5245 15.7987 29.6496 15.7987H23.963V0.709961H29.1497Z" fill="#6C11C9"></path></svg>